<?xml version="1.0" encoding="UTF-8"?><svg id="a" xmlns="http://www.w3.org/2000/svg" viewBox="0 0 168.41 215"><defs><style>.cls-1{fill:#65b579;}</style></defs><path class="cls-1" d="M84.16,215l-3.68-1.77c-1.09-.52-26.79-12.95-38.26-21.53-12.91-9.66-22.68-20.06-29.87-31.8-4.67-7.6-8.11-15.89-10.21-24.56C.68,129.05-.04,122.61,0,116.16v-26.68H0v-8.56C0,68.32,.36,41.14,.36,40.86l.11-7.91,7.9-.51C46.37,29.99,78.65,4.69,78.98,4.44l5.52-4.44,5.38,4.71c6.54,5.38,13.59,10.1,21.05,14.1,11.54,6.27,29.35,13.73,48.74,13.73h8.51v8.5c0,.52,.33,52.24,.2,77.06-.08,15.65-4.86,30.71-14.2,44.77-8,12.11-18.9,22.75-33.17,32.54-10,6.87-32.26,17.42-33.21,17.87l-3.64,1.72ZM17.08,72.36h0v43.76c-.04,5.13,.52,10.26,1.67,15.26,1.7,6.94,4.49,13.56,8.26,19.62,6,9.86,14.37,18.7,25.51,27,7.79,5.83,24.38,14.33,31.77,18,6.63-3.23,20.48-10.16,27.13-14.72,12.43-8.53,21.79-17.66,28.6-27.91,7.57-11.38,11.28-23,11.35-35.38,.09-18.78-.07-53.11-.16-68.73-30.84-2.71-56.41-19.34-67.16-27.39-10.83,7.43-36.23,22.76-66.69,26.84-.12,6.44-.23,15.79-.28,23.65h0Z"/><path class="cls-1" d="M84.22,98.44h32.22c1.78,0,1.89,.1,1.89,1.83v44.48c0,2.59-1.47,4.32-3.28,5.87-3.56,2.94-7.63,5.2-12,6.69-3.7,1.45-7.53,2.55-11.44,3.28-3.89,.63-7.85,.77-11.77,.41-8.14-.78-15.99-3.47-22.9-7.84-2.06-1.33-3.94-2.93-5.58-4.76-.82-1.04-1.26-2.32-1.25-3.64-.08-14.83-.05-29.65-.05-44.48,0-1.73,.12-1.84,1.88-1.84h32.28Zm-.06,43h4.56c.7,0,1.2-.19,1-1.11-.85-3.74-1.57-7.52-2.53-11.23-.41-.89-.02-1.95,.87-2.36l.04-.02c3.3-2.09,4.28-6.47,2.19-9.77l-.06-.09c-1.68-2.53-4.74-3.75-7.7-3.08-2.73,.71-4.78,2.95-5.26,5.73-.61,2.93,.74,5.92,3.34,7.4,.55,.35,1.1,.59,.88,1.53-1,3.91-1.77,7.85-2.7,11.76-.23,1,.15,1.24,1,1.25,1.43,.04,2.9,.03,4.37,.03v-.04h0Z"/><path class="cls-1" d="M98.84,84.33v-7.84c-.18-8.08-6.87-14.48-14.95-14.3-7.78,.17-14.07,6.41-14.3,14.19,.06,5.61,0,11.22,0,16.83,0,1.4-.43,1.78-1.78,1.72-2.47-.1-4.94-.05-7.41,0-.91,0-1.3-.3-1.29-1.23,.12-7.08-.19-14.19,.44-21.22,.5-5.71,3.53-10.53,7.85-14.42,12.64-11.39,33-7.08,39.73,8.45,1.36,3.1,2.08,6.44,2.1,9.82v17c0,1.23-.34,1.69-1.62,1.64-2.52-.09-5-.06-7.56,0-1,0-1.32-.33-1.3-1.32v-9.27l.09-.05h0Z"/></svg>