<?xml version="1.0" encoding="UTF-8"?><svg id="a" xmlns="http://www.w3.org/2000/svg" viewBox="0 0 181.82 215.28"><defs><style>.cls-1{fill:#65b579;}</style></defs><path class="cls-1" d="M69.49,164.06c2.63-.49,5.21-1.23,7.71-2.21,2.93-1.01,5.66-2.54,8.05-4.51,1.32-.91,2.14-2.39,2.21-4v-30c0-1.17-.07-1.23-1.27-1.23H42.77c-1.19,0-1.27,.07-1.27,1.24v30c0,.89,.29,1.75,.84,2.45,1.1,1.23,2.37,2.31,3.76,3.2,4.66,2.95,9.94,4.76,15.43,5.29,2.65,.26,5.33,.18,7.96-.23h0Zm-8-12.88c-.55,0-.8-.19-.65-.83,.63-2.64,1.18-5.3,1.82-7.93,.15-.63-.22-.79-.59-1-1.76-1-2.67-3.02-2.25-5,.32-1.87,1.71-3.37,3.54-3.85,1.99-.46,4.06,.36,5.19,2.07,1.44,2.2,.82,5.16-1.38,6.6l-.06,.04c-.61,.26-.89,.97-.62,1.58v.03c.66,2.5,1.14,5,1.71,7.56,.15,.62-.19,.74-.66,.75h-3.07l-2.98-.02Z"/><path class="cls-1" d="M48.45,119.81c1.66,0,3.33-.06,5,0,.91,0,1.21-.22,1.2-1.16v-11.34c.02-5.44,4.45-9.83,9.89-9.81,5.44,.02,9.83,4.44,9.81,9.88v5.29h0v6.25c0,.66,.2,.9,.88,.88h5.09c.86,0,1.1-.28,1.09-1.1v-11.44c0-2.28-.49-4.53-1.41-6.61-3.81-8.54-13.82-12.37-22.36-8.56-1.61,.72-3.1,1.68-4.41,2.86-2.95,2.44-4.84,5.92-5.29,9.72-.42,4.73-.22,9.53-.3,14.3-.07,.65,.2,.85,.81,.84Z"/><path class="cls-1" d="M141.08,0H29.92V73.3c-4.04,2.55-7.78,5.55-11.15,8.93-25.03,25.03-25.03,65.62,0,90.65,3.38,3.38,7.12,6.37,11.15,8.93v33.47H181.82V46.53L141.08,0Zm24.39,52.67v.33h-32.49V16.35h.69l31.8,36.32ZM14.59,127.55c0-27.34,22.16-49.5,49.5-49.5s49.5,22.16,49.5,49.5-22.16,49.5-49.5,49.5h0c-27.32-.03-49.47-22.18-49.5-49.5h0Zm31.68,71.39v-9.79c34.02,9.8,69.54-9.83,79.34-43.85,9.8-34.02-9.83-69.54-43.85-79.34-11.59-3.34-23.9-3.34-35.49,0V16.35H116.68v53h48.84V198.94H46.27Z"/></svg>