<?xml version="1.0" encoding="UTF-8"?><svg id="a" xmlns="http://www.w3.org/2000/svg" viewBox="0 0 218.21 204.73"><defs><style>.cls-1{fill:#65b579;}</style></defs><path class="cls-1" d="M215.74,133.22c-.45-1.45-1-2.87-1.51-4.26-1.87-4.65-4.36-9.03-7.42-13l-11.4,9.34-31,25.41-10.4-14.5-12,8.59,19.57,27.28,40.47-33.17c.43,1.55,.76,3.11,1,4.7,3.25,22.11-12.04,42.68-34.15,45.93s-42.68-12.04-45.93-34.15,12.04-42.68,34.15-45.93c1.96-.29,3.94-.43,5.93-.43,11.28,0,22.05,4.71,29.69,13l11.41-9.35c-4.27-4.76-9.32-8.75-14.94-11.79V51.35L94.57,0,0,51.19v105.41l94.57,46.76,29.59-14.63c21.65,21.46,56.59,21.31,78.05-.33,14.36-14.48,19.56-35.7,13.53-55.18h0ZM94.58,17.91l75.35,40.77-28.11,13.89L67.1,32.85l27.48-14.94Zm-7.38,164.2L14.74,146.27V74.07l72.46,35.83v72.21h0ZM19.36,58.75l31.14-16.9,73.94,39.32-29.87,14.77L19.36,58.75Zm82.58,51.15l72.47-35.83v21.43c-29.83-6.31-59.12,12.75-65.43,42.57-2.72,12.86-.76,26.28,5.52,37.83l-12.56,6.21V109.9h0Z"/></svg>