<?xml version="1.0" encoding="UTF-8"?><svg id="a" xmlns="http://www.w3.org/2000/svg" viewBox="0 0 169.91 216.79"><defs><style>.cls-1{fill:#65b579;}</style></defs><path class="cls-1" d="M169.69,41.4l-.06-8.57h-8.57c-19.55,0-37.51-7.53-49.14-13.84-7.53-4.03-14.64-8.8-21.23-14.23l-5.42-4.76-5.65,4.5c-.32,.26-32.72,25.74-71.18,28.22l-8,.52-.11,8c.03,.25-.33,27.66-.33,40.37v8.63H.06v26.92c-.03,6.51,.69,13,2.16,19.34,2.11,8.74,5.59,17.1,10.3,24.76,7.24,11.84,17.09,22.33,30.11,32.07,11.57,8.67,37.49,21.17,38.59,21.67l3.71,1.79,3.72-1.76c.95-.45,23.39-11.08,33.48-18,14.38-9.87,25.32-20.6,33.44-32.81,9.42-14.18,14.24-29.36,14.32-45.14,.11-25.01-.2-77.16-.2-77.68h0Zm-17.05,77.6c-.07,12.52-3.81,24.19-11.44,35.67-6.87,10.34-16.3,19.54-28.84,28.14-6.7,4.6-20.67,11.58-27.36,14.84-7.44-3.71-24.17-12.27-32-18.15-11.23-8.4-19.65-17.32-25.73-27.26-3.78-6.11-6.58-12.78-8.27-19.76-1.16-5.05-1.73-10.21-1.69-15.39v-44.09h0c.06-7.93,.16-17.36,.24-23.83,30.69-4.17,56.29-19.59,67.21-27.08,10.72,8,36.06,24.51,66.69,27.52L85,121.25l-31-33.63-12.71,11.7,43.65,47.35,67.65-72.92c.07,15.6,.11,33.46,.05,45.25h0Z"/></svg>